<?xml version="1.0" standalone="no"?><!DOCTYPE svg PUBLIC "-//W3C//DTD SVG 1.1//EN" "http://www.w3.org/Graphics/SVG/1.1/DTD/svg11.dtd"><svg t="1509419871758" class="icon" style="" viewBox="0 0 1024 1024" version="1.1" xmlns="http://www.w3.org/2000/svg" p-id="6303" xmlns:xlink="http://www.w3.org/1999/xlink" width="200" height="200"><defs><style type="text/css"></style></defs><path d="M935.224094 485.766522h-92.948949c-10.254551-3.876284-17.706267-15.413038-17.706267-29.084408v-13.065574c0-10.658757 4.536316-20.008706 11.393492-25.453718h56.210209c10.454096 0 18.929118-11.299347 18.929118-25.238824v-10.816347c0-13.939477-8.475022-25.238824-18.929118-25.238824H594.71384c-10.454096 0-18.929118 11.299347-18.929118 25.238824v10.816347c0 13.939477 8.475022 25.238824 18.929118 25.238824h128.23357c6.90527 5.343705 11.481496 14.56881 11.481495 25.087374v12.85068c0 15.099906-9.406231 27.589358-21.637809 29.665646H538.613124c-13.939477 0-25.238824 11.299347-25.238824 25.238824v10.816347c0 13.939477 11.299347 25.238824 25.238824 25.238824h396.61097c13.939477 0 25.238824-11.299347 25.238824-25.238824v-10.816347c0-13.939477-11.299347-25.238824-25.238824-25.238824zM425.221588 259.518638H89.454358c-11.79872 0-21.36561 11.299347-21.36561 25.238824v10.816347c0 13.939477 9.56689 25.238824 21.36561 25.238824h51.103911c8.324596 5.107321 14.062274 15.693424 14.062274 27.984355v13.401218c0 11.004635-4.601808 20.650319-11.5388 26.219151H91.532693c-10.338463 0-18.723434 11.299347-18.723434 25.238824v10.816347c0 13.939477 8.385994 25.238824 18.723434 25.238824h294.262954c10.338463 0 18.72548-11.299347 18.72548-25.238824v-10.816347c0-13.939477-8.388041-25.238824-18.72548-25.238824H257.669524c-7.702426-5.26184-12.910031-15.298428-12.910031-26.817786v-13.17609c0-12.156878 5.812379-22.627347 14.223956-27.610848h166.238139c11.79872 0 21.36561-11.299347 21.36561-25.238824v-10.816347c0-13.939477-9.56689-25.238824-21.36561-25.238824z" fill="#F4F4F7" p-id="6304"></path><path d="M234.458893 477.354945l411.035494 1.200339L808.945039 580.713988l-743.347018 0.599657 50.478671-33.04972 29.444613 1.802042-6.609535-12.619412z" fill="#FFFFFF" p-id="6305"></path><path d="M65.598021 583.115688a1.803066 1.803066 0 0 1-0.987491-3.311419l50.478672-33.049721a1.791809 1.791809 0 0 1 1.098007-0.291642l26.253944 1.607614-5.126764-9.787924a1.804089 1.804089 0 0 1 0.63752-2.362814l95.547123-60.092633a1.801019 1.801019 0 0 1 0.959861-0.277316h0.005116l411.035494 1.200338c0.336668 0.001023 0.665149 0.096191 0.950652 0.274246l163.450652 102.158705a1.803066 1.803066 0 0 1-0.953721 3.330862l-743.347019 0.599657-0.002046 0.002047z m50.965765-33.015952l-44.913933 29.405727 731.017203-0.589424-157.692509-98.558713-409.998884-1.197269-93.694939 58.927088 5.836938 11.143804a1.801019 1.801019 0 0 1-1.706875 2.636037l-28.847001-1.76725z" fill="#AAA9A9" p-id="6306"></path><path d="M509.081531 547.96205l-20.731161-108.166535 117.179817 61.295018z" fill="#FFFFFF" p-id="6307"></path><path d="M509.081531 549.765115a1.803066 1.803066 0 0 1-1.77032-1.463328l-20.73116-108.166535a1.805112 1.805112 0 0 1 0.694825-1.786692 1.808182 1.808182 0 0 1 1.910512-0.150426l117.179816 61.295018c0.603751 0.315178 0.977257 0.943488 0.967025 1.623987s-0.403183 1.297552-1.014097 1.595334l-96.448656 46.871517a1.805112 1.805112 0 0 1-0.787945 0.181125z m-18.257829-106.640785l19.585057 102.18838 91.118254-44.280506-110.703311-57.907874z" fill="#AAA9A9" p-id="6308"></path><path d="M509.986133 549.016055a1.802042 1.802042 0 0 1-1.376346-2.966565l56.035224-66.252936a1.803066 1.803066 0 1 1 2.75167 2.328022l-56.034201 66.252936a1.793856 1.793856 0 0 1-1.376347 0.638543z" fill="#AAA9A9" p-id="6309"></path><path d="M488.35037 439.795515l134.306892-265.458931s9.464559-14.422478 30.646998-2.25332l81.575923 41.013089s16.675798 11.717879 4.957919 29.29521L605.530187 501.090533l-117.179817-61.295018z" fill="#E4E4E3" p-id="6310"></path><path d="M606.296643 503.526001l-120.357182-62.956867L621.149932 173.34807c3.594875-5.479805 15.128559-13.124925 33.052791-2.827395l81.605599 41.025369 0.107447 0.075724c0.181125 0.12689 17.918092 12.910031 5.476735 31.6877l-135.095861 260.216533z m-115.535363-64.503083l114.001427 59.632146 133.519969-257.181407 0.055259-0.081865c10.240225-15.360849-2.977821-25.704428-4.397147-26.749224l-81.445963-40.94862c-19.005866-10.916631-27.482935 0.402159-28.280091 1.556448L490.76128 439.022918z" fill="#AAA9A9" p-id="6311"></path><path d="M580.74264 257.715573l118.982882 60.84374 25.690102-50.478672-118.983905-60.392462z" fill="#FFFFFF" p-id="6312"></path><path d="M700.512445 320.986595l-122.19811-62.488193 27.332508-53.230342 122.194017 62.021566-27.328415 53.696969z m-117.341499-64.053851l115.76663 59.199286 24.052813-47.261396-115.774817-58.763359-24.044626 46.825469zM535.430642 435.355389l67.130933-131.167388 3.210112 1.643429-67.130933 131.167389zM614.723569 389.854079l9.917884-20.729114 3.252067 1.555426-9.917883 20.730137zM579.12377 458.338846l25.234731-49.579185 3.214205 1.636267-25.234731 49.579185z" fill="#AAA9A9" p-id="6313"></path><path d="M434.56949 483.963457l28.844955-0.599658 16.22452 31.849382z" fill="#FFFFFF" p-id="6314"></path><path d="M479.637941 517.016247c-0.358157 0-0.716314-0.106424-1.026376-0.321318l-45.069475-31.249725a1.804089 1.804089 0 0 1 0.989538-3.283789l28.844955-0.599658c0.693802-0.030699 1.330298 0.367367 1.643429 0.983397l16.22452 31.849383a1.804089 1.804089 0 0 1-1.606591 2.62171z m-39.47199-31.366382l34.617426 24.002671-12.461823-24.463158-22.155603 0.460487z" fill="#AAA9A9" p-id="6315"></path><path d="M435.168124 510.405689l42.667775 12.018731-39.062667 1.200338z" fill="#FFFFFF" p-id="6316"></path><path d="M438.772208 525.426801c-0.810459 0-1.524726-0.542352-1.738597-1.328252l-3.605108-13.219069a1.801019 1.801019 0 0 1 2.227738-2.209318l42.667775 12.018731a1.801019 1.801019 0 0 1-0.432858 3.536546l-39.062668 1.200338-0.056282 0.001024z m-1.027399-12.421914l2.39249 8.773827 25.928532-0.796132-28.321022-7.977695z" fill="#AAA9A9" p-id="6317"></path><path d="M253.689886 551.266305a3.605108 3.605108 0 1 1-0.008186-7.211238l240.97019-0.599658h0.00921a3.605108 3.605108 0 1 1 0.008186 7.211239l-240.97019 0.599657h-0.00921z" fill="#AAA9A9" p-id="6318"></path></svg>